<svg xmlns="http://www.w3.org/2000/svg" class="thumbnail-icon" viewBox="0 31.053 200 137.893"><path fill-rule="evenodd" d="M36.913 119.653 9.17 111.17 0 116.902l31.64 22.01c1.605 1.146 3.439 1.146 5.273.458l74.743-31.64c.23-.228-10.088 61.217-10.088 61.217l13.986-8.713 29.805-70.616 48.147-33.703c6.878-4.356 8.483-13.068 3.898-19.488-4.127-5.732-12.38-6.878-18.571-3.44-44.48 26.138-88.5 53.65-131.144 82.768l-5.044 3.44c-1.605 1.146-4.127 1.375-5.732.458zm24.074-60.528-9.63 5.961 42.186 12.38 22.698-14.443z" data-paper-data="{&quot;fillRule&quot;:&quot;evenodd&quot;,&quot;isIcon&quot;:&quot;true&quot;,&quot;iconType&quot;:&quot;icon&quot;,&quot;rawIconId&quot;:&quot;879655&quot;,&quot;selectedEffects&quot;:{&quot;container&quot;:&quot;&quot;,&quot;transformation&quot;:&quot;&quot;,&quot;pattern&quot;:&quot;&quot;},&quot;combineTerms&quot;:&quot;flight&quot;,&quot;isDetailed&quot;:false,&quot;bounds&quot;:{&quot;x&quot;:197.26512794222072,&quot;y&quot;:149.86514613861644,&quot;width&quot;:155.46974411555857,&quot;height&quot;:107.19116722806015},&quot;iconStyle&quot;:&quot;standalone&quot;}"/></svg>